<svg width="320" height="320" xmlns="http://www.w3.org/2000/svg" xmlns:xlink="http://www.w3.org/1999/xlink"><defs><linearGradient x1="50%" y1="100%" x2="50%" y2="0%" id="a"><stop stop-color="#FAD961" offset="0%"/><stop stop-color="#FB9E4A" offset="100%"/></linearGradient><circle id="b" cx="127.677" cy="127.677" r="127.677"/><linearGradient x1="50%" y1="0%" x2="50%" y2="100%" id="d"><stop stop-color="#FAD961" offset="0%"/><stop stop-color="#FB9E4A" offset="100%"/></linearGradient></defs><g fill="none" fill-rule="evenodd"><circle cx="127.677" cy="127.677" r="127.677" transform="translate(32.323 32.323)" fill="url(#a)"/><g fill="#FFF"><path d="M209.794 77.647c0 .679-.537 1.229-1.2 1.229-.663 0-1.2-.55-1.2-1.23 0-.678.537-1.228 1.2-1.228.663 0 1.2.55 1.2 1.229M105.91 83.347c-1.103 0-2-.917-2-2.048s.897-2.048 2-2.048c1.105 0 2 .917 2 2.048s-.895 2.048-2 2.048zM184.194 98.536a.81.81 0 0 1-.8-.82.81.81 0 0 1 .8-.818c.442 0 .8.366.8.819a.81.81 0 0 1-.8.82zM163.795 56.758c-1.105 0-2-.917-2-2.048s.895-2.048 2-2.048c1.104 0 2 .917 2 2.048s-.896 2.048-2 2.048zM67.182 137.257c-.78-.8-.78-2.097 0-2.897.781-.8 2.048-.8 2.828 0 .781.8.781 2.097 0 2.897-.78.8-2.047.8-2.828 0zM196.618 73.858a2.083 2.083 0 0 1 0-2.896c.78-.8 2.047-.8 2.828 0 .781.8.781 2.096 0 2.896-.78.8-2.047.8-2.828 0zM68.644 149.904c-.468.32-1.228.32-1.696 0-.469-.32-.469-.838 0-1.158.468-.32 1.228-.32 1.697 0 .468.32.468.838 0 1.158M182.829 63.071a.833.833 0 0 1 0-1.158.787.787 0 0 1 1.13 0 .833.833 0 0 1 .001 1.159.787.787 0 0 1-1.131 0zM145.624 65.662a.833.833 0 0 0 0 1.158c.312.32.819.32 1.131 0a.833.833 0 0 0 0-1.158.787.787 0 0 0-1.131 0zM127.395 73.614a.81.81 0 0 1-.8-.82.81.81 0 0 1 .8-.819c.442 0 .8.367.8.82a.81.81 0 0 1-.8.819zM112.996 66.588a.81.81 0 0 1-.8-.82.81.81 0 0 1 .8-.818c.441 0 .8.367.8.819a.81.81 0 0 1-.8.82z"/></g><g transform="translate(32.323 32.323)"><mask id="c" fill="#fff"><use xlink:href="#b"/></mask><path d="M-9.051 126.657c59.515 0 65.465-41.895 107.465-41.895 62.927 0 47.583-32.813 82.413-32.813 29.687 0 29.687-53.8 0-53.8-24.531 0-84.312-49.058-127.801-49.058-27.843 0-46.178 30.745-72.58 30.745-32.179 0-71.235 32.303-108.935 32.303-35.044 0-48.454 47.137 0 47.137 46.516 0 46.516 67.38 119.438 67.38z" fill="#F0933D" fill-rule="nonzero" mask="url(#c)"/><path d="M281.093 296.044c49.782 0 73.768-82.81 138.744-82.81 58.831 0 78.49-157.268-55.336-157.268-43.075 0-71.44 47.564-112.284 47.564-49.783 0-40.7 49.974-99.023 49.974-54.216 0-74.96 72.924 0 72.924 71.962 0 71.962 69.616 127.899 69.616z" fill="#FAD45F" fill-rule="nonzero" mask="url(#c)"/><g mask="url(#c)"><path d="M78.907 286.792h163.024v-38.048H78.907a6 6 0 0 0-6 6v26.048a6 6 0 0 0 6 6z" fill="#FFF"/><path d="M73.704 255.36h168.227v-6.616H78.704a5 5 0 0 0-5 5v1.617z" fill="#E8E6D2"/><path d="M77.468 284.877c-1.516 0-2.744-1.285-2.744-2.87v-28.259c0-2.163 1.676-3.916 3.743-3.916H249.137c.423 0 .767-.36.767-.803v-1.964c0-.443-.344-.803-.767-.803H78.467c-3.952 0-7.154 3.352-7.154 7.486v28.258c0 3.557 2.755 6.44 6.155 6.44h171.669c.423 0 .767-.359.767-.802v-1.964c0-.443-.344-.803-.767-.803H77.468z" fill="#1C3251"/><path fill="#FFF" d="M95.231 243.78H230.77v-13.234H95.231z"/><path fill="#E8E6D2" d="M95.231 237.163H230.77v-6.617H95.231z"/><path d="M226.993 242.957c1.518 0 2.992-1.561 2.992-3.15v-5.066c0-2.168-1.922-3.358-3.994-3.358H92.013c-.424 0-.768-.36-.768-.804v-1.71c0-.444.344-.804.768-.804h133.978c3.96 0 7.17 2.532 7.17 6.676v5.065c0 3.566-2.762 6.456-6.168 6.456H92.013c-.424 0-.768-.36-.768-.804v-1.696c0-.445.344-.805.768-.805h134.98z" fill="#355368"/><g><path d="M122.758 226.41h108.011v-23.16H122.758a6 6 0 0 0-6 6v11.16a6 6 0 0 0 6 6z" fill="#FFF"/><path fill="#E8E6D2" d="M118.352 210.695H230.77v-5.79H118.352z"/><path d="M121.547 224.765c-1.53 0-3.196-1.734-3.196-3.338v-12.381c0-2.188 1.945-4.138 4.03-4.138h111.6c.428 0 .774-.364.774-.812v-1.688c0-.448-.346-.812-.773-.812h-111.6c-3.987 0-7.219 3.39-7.219 7.573v12.38c0 3.599 2.78 6.516 6.21 6.516h112.609c.427 0 .773-.364.773-.812v-1.676c0-.448-.346-.812-.773-.812H121.547z" fill="#1C3251"/></g><g><path d="M126.744 137.905h108.011v-23.16h-108.01a6 6 0 0 0-6 6v11.16a6 6 0 0 0 6 6z" fill="#FFF"/><path fill="#E8E6D2" d="M122.339 122.19h112.416v-5.79H122.34z"/><path d="M125.533 136.26c-1.529 0-3.196-1.734-3.196-3.338V120.54c0-2.188 1.945-4.138 4.031-4.138h111.6c.427 0 .774-.364.774-.812v-1.688c0-.449-.347-.812-.774-.812h-111.6c-3.987 0-7.218 3.39-7.218 7.573v12.38c0 3.598 2.78 6.516 6.21 6.516h112.608c.427 0 .774-.364.774-.812v-1.676c0-.448-.347-.812-.774-.812H125.533z" fill="#1C3251"/></g><g><path fill="#FFF" d="M83.272 198.287h139.524V168.51H83.272z"/><path fill="#E8E6D2" d="M84.07 175.127h138.726v-5.79H84.07z"/><path d="M87.048 197.993c-1.518 0-2.75-1.297-2.75-2.897v-21.512c0-2.184 1.68-3.953 3.751-3.953h136.37c.425 0 .769-.363.769-.81v-1.982c0-.448-.344-.81-.768-.81H88.05c-3.96 0-7.17 3.382-7.17 7.555v21.512c0 3.59 2.761 6.5 6.168 6.5H224.42c.424 0 .768-.363.768-.81v-1.983c0-.447-.344-.81-.768-.81H87.048z" fill="#E44B03"/></g><g><path d="M111.596 164.374h108.011v-23.16H111.596a6 6 0 0 0-6 6v11.16a6 6 0 0 0 6 6z" fill="#FFF"/><path fill="#E8E6D2" d="M107.19 148.658h112.417v-5.79H107.19z"/><path d="M110.385 162.729c-1.53 0-3.196-1.734-3.196-3.338V147.01c0-2.189 1.945-4.139 4.03-4.139h111.6c.428 0 .774-.363.774-.811v-1.688c0-.449-.346-.812-.773-.812h-111.6c-3.987 0-7.219 3.39-7.219 7.573v12.38c0 3.598 2.78 6.515 6.21 6.515H222.82c.427 0 .773-.363.773-.811v-1.676c0-.449-.346-.812-.773-.812H110.385z" fill="#355368"/></g></g></g><g transform="translate(214 102)"><path d="M4 0h24a4 4 0 0 1 4 4v36a4 4 0 0 1-4 4H4a4 4 0 0 1-4-4V4a4 4 0 0 1 4-4z" fill="#182933" fill-rule="nonzero"/><circle fill="url(#d)" cx="16" cy="40" r="2"/><path d="M16.294 40.184c.04-.042.118-.036.152 0 .033.036.046.095 0 .161l-.32.354v.426a.123.123 0 0 1-.126.125.122.122 0 0 1-.125-.125V40.7l-.322-.34c-.042-.063-.035-.12 0-.163.036-.042.109-.045.142-.012.034.033.297.31.305.317.008-.007.27-.292.294-.317zM16.749 39c.066 0 .126.062.126.128v1.624a.129.129 0 0 1-.126.126c-.07 0-.121-.06-.121-.126v-1.319l-.508.6c-.075.072-.161.074-.245 0l-.5-.6v1.32a.126.126 0 0 1-.124.125.127.127 0 0 1-.126-.126v-1.636c0-.066.058-.116.126-.116.056 0 .09.02.124.073l.625.73.628-.73c.034-.05.068-.073.12-.073z" fill="#BE5B04" fill-rule="nonzero"/><g fill-rule="nonzero"><path d="M3 4h26a1 1 0 0 1 1 1v30a1 1 0 0 1-1 1H3a1 1 0 0 1-1-1V5a1 1 0 0 1 1-1z" fill="#FFF"/><path d="M5 7h22a1 1 0 0 1 0 2H5a1 1 0 1 1 0-2zm0 4h17a1 1 0 0 1 0 2H5a1 1 0 1 1 0-2zm0 4h21a1 1 0 0 1 0 2H5a1 1 0 0 1 0-2zm0 4h22a1 1 0 0 1 0 2H5a1 1 0 0 1 0-2zm0 4h20a1 1 0 0 1 0 2H5a1 1 0 0 1 0-2zm0 4h22a1 1 0 0 1 0 2H5a1 1 0 0 1 0-2zm0 4h9a1 1 0 0 1 0 2H5a1 1 0 0 1 0-2z" fill="#E8E6DD"/></g></g><g transform="scale(1 -1) rotate(75 236.025 100.685)" fill-rule="nonzero"><ellipse fill="#000" cx="8.889" cy="19.208" rx="5.556" ry="6.875"/><g transform="translate(0 20.111)"><ellipse fill="#000" cx="7.074" cy="8.313" rx="6.259" ry="7.746"/><ellipse fill="#1C3251" cx="5.963" cy="8.313" rx="4.432" ry="5.807"/><ellipse fill="#496B83" cx="4.057" cy="8.313" rx="1.835" ry="2.854"/></g><path d="M8.995 3.357c.321 1.793.686 4.852 1.094 9.176l1.324.613c-.377-5.725-.927-9.715-1.648-11.968C9.216-.537 8.07.168 7.481 2.574c-.536 2.193-.995 9.055-1.377 20.587l1.706.705C8.278 8.4 8.673 1.563 8.995 3.357z" fill="#1C3251"/></g><path d="M79.069 192.915c.233 2.184 34.209 17.384 34.209 17.384v8.74s-33.496-4.873-46.706-20.1c-7.084-24.622 3.823-54.555 3.823-54.555 2.586-11.534 17.405-7.006 15.762 2.013 0 0-8.515 33.128-7.088 46.518z" fill="#FFE3B0"/><path d="M123.095 113.607c4.03-17.17-.737-25.093-12.004-29.418-15.992-6.14-25.937-.656-31.12 9.727-3.485 6.978-6.976 10.779-15.391 9.41-18.001-2.926-32.808 7.506-28.806 26.98 2.395 11.652 12.978 19.895 23.179 25.329a98.372 98.372 0 0 0 7.31 3.5c13.95 6.008 28.464 12.083 40.329 5.544 4.82-2.656 9.202-7.394 12.933-15.063 3.495-7.183-2.065-13.913 2.608-15.404 6.083-1.942 9.865-7.81 4.906-12.397-2.285-2.114-4.738-4.826-3.944-8.208" fill="#F27B01"/><path d="M95.45 114.035c-4.283-2.803-4.991-5.25-5.34-10.679-7.857.792-4.778 10.02-7.03 17.727-2.204 7.544-16.166 2.158-23.656 7.621-6.033 4.401-9.87 18.81-1.196 26.872a97.508 97.508 0 0 0 7.284 3.516c13.9 6.04 28.361 12.144 40.184 5.573 8.271-9.3 2.29-19.742-4.534-24.66-8.859-6.383-4.215-10.352.532-11.504 12.684-3.076 17.093-8.516 10.68-34.468-3.17 9.723-17.714 23.401-16.923 20.002" fill="#E44B03"/><path d="M112.167 94.033c3.518 15.396-1.397 30.845-12.434 29.122-4.358-.68-5.143-.658-6.423 3.747-1.167 4.019-5.445 11.277-3.409 23.009-4.706-2.693-7.68-16.59-7.68-20.257 2.479-3.892 5.342-10.022 4.884-14.442-.505-4.867-.992-9.83 3.078-11.878 2.735-1.376 4.303.837 4.076 4.142 6.537-1.643 12.697-5.17 17.908-13.443" fill="#FFE3B0"/><path d="M86.66 145.086c5.09 7.324 9.74 17.149-2.442 35.61-4.16 6.304-20.784 22.624-15.945 33.776 10.325 23.795 9.83 23.885 13.761 46.492-37.326-23.641-44.599-56.475-43.47-60.148 6.376-20.718 17.256-50.46 22.67-57.286 8.123-10.24 20.8-13.28 20.8-13.28s2.149 11.274 4.626 14.836zM110.283 108.52c0 .571-.898 1.035-2.005 1.035-1.107 0-2.004-.464-2.004-1.035s.897-1.035 2.004-1.035 2.005.464 2.005 1.035" fill="#355368"/><path d="M106.274 105.416c.863-.562 1.891-.875 2.93-.992 1.038-.106 2.115-.025 3.083.347a14.788 14.788 0 0 0-3.043.003c-1.005.103-1.984.332-2.97.642" fill="#F27B01"/><path d="M178.073 133.986l2.14-1.33c6.207-3.857 13.28-5.797 20.4-5.596l3.64.102c2.811.214 2.719 1.74.127 1.605l-7.025 1.046 5.676.144 3.48.347c.421.042.747.4.772.849l.122 2.165c.084.837-2.622.933-4.077 1.416-1.018.338-3.547 1.272-3.798 1.329 2.772.718 4.242 1.132 4.41 1.242 1.315.86-.555 1.13-.857 1.198-.921.21-3.673-.554-4.825-.293-2.29.52-6.262 1.548-11.913 3.082l-4.214-.284c-10.362 5.096-34.012 16.408-48.455 20.8-25.42 7.728-56.172-4.04-56.172-4.04-11.862-2.781-7.084-18.858 2.195-17.093 0 0 36.825 8.994 50.63 7.42 1.686-.192 32.396-9.459 47.744-14.11z" fill="#FFE3B0"/><g><path d="M184.225 57.86c-2.912-3.352-3.11-8.226-.758-11.8a10.94 10.94 0 0 0-6.009 2.807c-4.571 4.185-4.988 11.366-.93 16.039 4.058 4.673 11.054 5.069 15.626.884a11.423 11.423 0 0 0 3.402-5.808 9.212 9.212 0 0 1-11.331-2.121" fill="#FFF"/><path d="M177.455 50.101c-3.692 4.195-4.062 10.255 0 14.887 4.061 4.633 12.675 3.226 15.676-.898-6.766 3.18-19.819-1.005-15.676-13.989z" fill="#C4C1AD" opacity=".2"/></g></g></svg>